<svg width="16" height="16" viewBox="0 0 16 16" fill="none" xmlns="http://www.w3.org/2000/svg">
<path fill-rule="evenodd" clip-rule="evenodd" d="M4 0C3.44772 0 3 0.447715 3 1V15C3 15.5523 3.44772 16 4 16C4.55228 16 5 15.5523 5 15V7.54559C5.49956 7.28136 6.15131 7 7 7C8 7 8.5 7.5 9 8C9.5 8.5 10 9 11 9C12.2485 9 13.1723 8.59407 13.6763 8.25734C13.8968 8.11 14 7.851 14 7.58579V3C14 2.44772 13.6006 2.18083 13.1258 2.46307C12.6857 2.72475 12.0493 3 11 3C10 3 9.5 2.5 9 2C8.5 1.5 8 1 7 1C6.15131 1 5.49956 1.28136 5 1.54559V1C5 0.447715 4.55228 0 4 0Z" fill="#001E2E"/>
</svg>
