<svg width="14" height="15" viewBox="0 0 14 15" fill="none" xmlns="http://www.w3.org/2000/svg">
<path fill-rule="evenodd" clip-rule="evenodd" d="M10 6C10 8.20914 8.20914 10 6 10C3.79086 10 2 8.20914 2 6C2 3.79086 3.79086 2 6 2C8.20914 2 10 3.79086 10 6ZM8.86105 11.2752C8.01063 11.7374 7.03598 12 6 12C2.68629 12 0 9.31371 0 6C0 2.68629 2.68629 0 6 0C9.31371 0 12 2.68629 12 6C12 7.55147 11.4111 8.9654 10.4447 10.0305L12.9497 12.5355C13.3403 12.926 13.3403 13.5592 12.9497 13.9497C12.5592 14.3402 11.9261 14.3402 11.5355 13.9497L8.86105 11.2752Z" fill="#CFD9DE"/>
</svg>
