<svg width="167" height="33" viewBox="0 0 167 33" fill="none" xmlns="http://www.w3.org/2000/svg">
<path d="M2.25323 32.9992C1.95629 32.9982 1.66244 32.9387 1.38849 32.8242C1.11453 32.7096 0.865826 32.5422 0.656585 32.3315C0.447343 32.1208 0.281662 31.8709 0.169006 31.5962C0.0563507 31.3214 -0.00107411 31.0272 1.52122e-05 30.7302V2.26813C-0.000965113 1.97125 0.0565388 1.67709 0.169243 1.40243C0.281948 1.12778 0.447647 0.878016 0.656878 0.667401C0.866109 0.456786 1.11478 0.289446 1.38868 0.174933C1.66258 0.0604201 1.95636 0.000977099 2.25323 0H30.5977C30.8946 0.00020793 31.1884 0.0591696 31.4623 0.173483C31.7363 0.287797 31.9849 0.455204 32.1938 0.666049C32.4027 0.876895 32.5678 1.12701 32.6796 1.40197C32.7914 1.67694 32.8477 1.97131 32.8452 2.26813V30.731C32.8463 31.0281 32.7888 31.3224 32.6761 31.5972C32.5634 31.872 32.3976 32.1219 32.1883 32.3326C31.979 32.5433 31.7302 32.7107 31.4561 32.8252C31.1821 32.9397 30.8881 32.9991 30.5911 33L2.25323 32.9992ZM23.2087 26.213C23.2105 25.5483 22.9482 24.9101 22.4796 24.4386C22.011 23.9672 21.3743 23.7012 20.7096 23.699C20.0449 23.7012 19.4082 23.9672 18.9396 24.4386C18.4709 24.9101 18.2087 25.5483 18.2104 26.213C18.2085 26.8779 18.4706 27.5163 18.9393 27.9879C19.4079 28.4596 20.0447 28.7257 20.7096 28.7279C21.3745 28.7257 22.0112 28.4596 22.4799 27.9879C22.9486 27.5163 23.2107 26.8779 23.2087 26.213ZM14.2903 26.213C14.2913 25.8838 14.2274 25.5577 14.1023 25.2532C13.9773 24.9487 13.7934 24.6718 13.5614 24.4384C13.3293 24.2049 13.0535 24.0195 12.7498 23.8926C12.446 23.7657 12.1203 23.6999 11.7911 23.699C11.1262 23.7009 10.4894 23.9669 10.0206 24.4383C9.55174 24.9098 9.28937 25.5481 9.29113 26.213C9.29015 26.5423 9.35403 26.8686 9.47914 27.1731C9.60424 27.4777 9.78812 27.7547 10.0203 27.9882C10.2524 28.2218 10.5283 28.4073 10.8321 28.5342C11.136 28.6611 11.4618 28.7269 11.7911 28.7279C12.1204 28.7269 12.4462 28.6611 12.75 28.5342C13.0538 28.4073 13.3296 28.2217 13.5617 27.9882C13.7938 27.7546 13.9775 27.4777 14.1026 27.1731C14.2276 26.8685 14.2914 26.5423 14.2903 26.213ZM9.29113 7.53143C9.29015 7.86071 9.35403 8.18696 9.47914 8.49156C9.60424 8.79615 9.78812 9.07312 10.0203 9.30665C10.2524 9.54018 10.5283 9.72569 10.8321 9.85261C11.136 9.97952 11.4618 10.0453 11.7911 10.0463C12.1204 10.0453 12.4462 9.97952 12.75 9.85259C13.0538 9.72567 13.3296 9.54014 13.5617 9.3066C13.7938 9.07306 13.9775 8.79608 14.1026 8.49149C14.2276 8.18691 14.2914 7.86067 14.2903 7.53143C14.2913 7.20226 14.2274 6.87611 14.1023 6.57162C13.9773 6.26713 13.7934 5.99026 13.5614 5.7568C13.3293 5.52335 13.0535 5.33789 12.7498 5.21102C12.446 5.08415 12.1203 5.01834 11.7911 5.01737C11.1262 5.01934 10.4894 5.2853 10.0206 5.75675C9.55174 6.22821 9.28937 6.86656 9.29113 7.53143ZM18.2096 7.53143C18.2086 7.86078 18.2725 8.1871 18.3977 8.49175C18.5228 8.79639 18.7068 9.0734 18.939 9.30694C19.1713 9.54048 19.4472 9.72598 19.7512 9.85284C20.0551 9.97971 20.3811 10.0455 20.7104 10.0463C21.3751 10.0439 22.0117 9.77765 22.4802 9.30606C22.9487 8.83447 23.2107 8.19616 23.2087 7.53143C23.2105 6.8667 22.9482 6.22847 22.4796 5.75704C22.011 5.28561 21.3743 5.01956 20.7096 5.01737C20.0449 5.01956 19.4082 5.28561 18.9396 5.75704C18.4709 6.22847 18.2087 6.8667 18.2104 7.53143H18.2096ZM27.8485 12.2051C27.8485 12.2051 23.0249 17.2349 16.4292 17.2349C9.8327 17.2349 5.36601 12.2051 5.36601 12.2051L4.29529 13.2833C4.29529 13.2833 9.30769 19.749 16.4292 19.749C23.5507 19.749 28.9192 13.2833 28.9192 13.2833L27.8485 12.2051Z" fill="#0091DB"/>
<path d="M60.5851 23.4366L60.2887 17.1489C60.1976 15.1598 60.0842 12.7592 60.1065 10.6791H60.0386C59.505 12.6669 58.8973 14.6342 58.2168 16.5767L55.9876 23.2536H53.8255L51.7776 16.6686C51.1819 14.6935 50.6654 12.6954 50.2291 10.6791H50.1844C50.1157 12.6913 50.0254 15.1367 49.9111 17.2408L49.57 23.4366H46.9524L47.9767 8.0259H51.6634L53.6657 14.2225C54.1993 15.9887 54.6702 17.7732 55.0776 19.5727H55.1455C55.5873 17.7636 56.096 15.9715 56.6708 14.2001L58.7865 8.0259H62.4285L63.3162 23.4366H60.5851ZM65.4063 9.19267C65.4063 8.32318 66.0439 7.66071 66.9771 7.66071C67.9327 7.66071 68.5248 8.32318 68.5472 9.19267C68.5472 10.039 67.9327 10.7014 66.9539 10.7014C66.0207 10.7014 65.4063 10.039 65.4063 9.19267ZM65.5661 12.3021H68.3874V23.4283H65.5661V12.3021ZM77.9973 23.4366V17.1489C77.9973 15.5482 77.4052 14.3367 75.8807 14.3367C74.7653 14.3367 73.9918 15.1367 73.6962 15.983C73.6051 16.2347 73.5828 16.5767 73.5828 16.8972V23.4366H70.7598V15.617C70.7598 14.3367 70.7375 13.2619 70.6687 12.3021H73.1265L73.2631 13.9707H73.3319C73.8097 13.1021 75.0162 12.0504 76.8595 12.0504C78.7939 12.0504 80.797 13.3083 80.797 16.8284V23.4366H77.9973ZM91.4048 23.4366L91.2914 21.6761H91.2458C90.5858 22.9099 89.2435 23.6883 87.6271 23.6883C84.9863 23.6883 82.8937 21.4251 82.8937 17.9952C82.8706 14.2688 85.1917 12.0504 87.854 12.0504C89.3793 12.0504 90.4716 12.6905 90.9725 13.5136H91.0181V7.20361H93.817V20.3039C93.817 21.4467 93.8634 22.6822 93.9081 23.4366H91.4048ZM91.0098 16.9402C91.0097 16.6949 90.987 16.4502 90.9419 16.209C90.6918 15.1135 89.8049 14.2225 88.5322 14.2225C86.7377 14.2225 85.7382 15.8207 85.7382 17.8992C85.7382 19.9313 86.7377 21.4169 88.5106 21.4169C89.6468 21.4169 90.6455 20.6401 90.9187 19.4295C90.9874 19.1785 91.0098 18.9044 91.0098 18.608V16.9402ZM99.2551 22.2011H99.2095V27.9637H96.4106V16.0062C96.4082 14.771 96.3779 13.536 96.3195 12.3021H98.7764L98.9139 14.0163H98.9594C99.7792 12.7592 101.076 12.0504 102.76 12.0504C105.308 12.0504 107.425 14.2448 107.425 17.7203C107.425 21.7448 104.899 23.6883 102.374 23.6883C100.984 23.6883 99.8231 23.0937 99.2551 22.2011ZM99.323 16.3482C99.2522 16.5782 99.214 16.8171 99.2095 17.0578V18.772C99.2095 19.0469 99.2327 19.2986 99.3006 19.5495C99.573 20.6923 100.573 21.5154 101.754 21.5154C103.526 21.5154 104.572 20.0298 104.572 17.8354C104.572 15.8687 103.618 14.268 101.823 14.268C100.664 14.268 99.5954 15.1143 99.3221 16.3482H99.323ZM115.548 23.4448L115.366 22.2085H115.298C114.616 23.078 113.454 23.6966 112.021 23.6966C109.791 23.6966 108.539 22.0719 108.539 20.3784C108.539 17.5646 111.019 16.1461 115.116 16.1685V15.9863C115.116 15.2534 114.82 14.0403 112.863 14.0403C111.77 14.0403 110.633 14.3839 109.882 14.8651L109.335 13.0342C110.155 12.5307 111.589 12.0504 113.34 12.0504C116.891 12.0504 117.915 14.3152 117.915 16.7407V20.7676C117.915 21.7746 117.961 22.7584 118.074 23.444L115.548 23.4448ZM115.184 17.996C113.205 17.9488 111.316 18.3844 111.316 20.0754C111.316 21.1734 112.02 21.6761 112.909 21.6761C114.023 21.6761 114.843 20.944 115.093 20.1441C115.162 19.9379 115.184 19.7093 115.184 19.5272V17.996ZM130.828 23.4283H127.665L126.299 21.2123C125.943 20.6232 125.609 20.0211 125.298 19.4071H125.253C124.934 20.0472 124.615 20.5954 124.251 21.2123L122.977 23.4283H119.881L123.727 17.7625L120.018 12.3021H123.136L124.456 14.4038C124.821 14.9975 125.138 15.5466 125.458 16.1171H125.526C125.845 15.5002 126.164 14.9288 126.482 14.3583L127.711 12.3021H130.76L127.051 17.6482L130.828 23.4283ZM131.836 21.8864C131.836 20.8314 132.562 20.0754 133.562 20.0754C134.583 20.0754 135.287 20.809 135.287 21.8864C135.287 22.9173 134.606 23.6966 133.562 23.6966C132.54 23.6966 131.836 22.9173 131.836 21.8864ZM151.263 23.4366V17.2864C151.263 15.4348 150.626 14.3367 149.283 14.3367C148.326 14.3367 147.62 15.0232 147.325 15.8231C147.256 16.0972 147.188 16.4401 147.188 16.7605V23.4366H144.455V16.9891C144.455 15.4348 143.841 14.3367 142.542 14.3367C141.495 14.3367 140.789 15.1599 140.538 15.9374C140.426 16.2115 140.38 16.532 140.38 16.8516V23.4366H137.648V15.617C137.648 14.3367 137.624 13.2619 137.556 12.3021H139.969L140.084 13.9484H140.152C140.698 13.0789 141.7 12.0504 143.568 12.0504C145.025 12.0504 146.164 12.8735 146.641 14.1082H146.686C147.074 13.4913 147.53 13.0333 148.052 12.7137C148.668 12.2789 149.373 12.0512 150.284 12.0512C152.128 12.0512 153.996 13.3083 153.996 16.8748V23.4366H151.263ZM158.995 18.6585C159.063 20.6708 160.633 21.5386 162.408 21.5386C163.705 21.5386 164.638 21.3564 165.48 21.0359L165.89 22.9786C164.934 23.3678 163.615 23.6651 162.021 23.6651C158.426 23.6651 156.309 21.4475 156.309 18.0408C156.309 14.9545 158.175 12.0504 161.725 12.0504C165.321 12.0504 166.505 15.0232 166.505 17.4694C166.508 17.8674 166.478 18.2649 166.414 18.6577L158.995 18.6585ZM158.995 16.6918H163.873C163.895 15.6633 163.44 13.9707 161.571 13.9707C159.839 13.9707 159.108 15.5482 158.995 16.6918Z" fill="white"/>
</svg>
