<svg width="16" height="16" viewBox="0 0 16 16" fill="none" xmlns="http://www.w3.org/2000/svg">
<path d="M3.64645 13.3536C3.84171 13.5488 4.15829 13.5488 4.35355 13.3536L7.53553 10.1716C7.7308 9.97631 7.7308 9.65973 7.53553 9.46447C7.34027 9.2692 7.02369 9.2692 6.82843 9.46447L4 12.2929L1.17157 9.46447C0.97631 9.2692 0.659728 9.2692 0.464466 9.46447C0.269204 9.65973 0.269204 9.97631 0.464466 10.1716L3.64645 13.3536ZM3.5 3L3.5 13L4.5 13L4.5 3L3.5 3Z" fill="#728189"/>
<path d="M12.3536 2.64645C12.1583 2.45118 11.8417 2.45118 11.6464 2.64645L8.46447 5.82843C8.2692 6.02369 8.2692 6.34027 8.46447 6.53553C8.65973 6.7308 8.97631 6.7308 9.17157 6.53553L12 3.70711L14.8284 6.53553C15.0237 6.7308 15.3403 6.7308 15.5355 6.53553C15.7308 6.34027 15.7308 6.02369 15.5355 5.82843L12.3536 2.64645ZM12.5 13L12.5 3H11.5L11.5 13H12.5Z" fill="#728189"/>
</svg>
